# xmcd
#
# Track frame offsets:
#	150
#	11235
#	20962
#	32280
#	40510
#	51077
#	64302
#	77155
#	88127
#	100500
#	111705
#	122957
#	136900
#	148757
#	159237
#	169737
#	181017
#	193610
#	206147
#	217402
#	229950
#	240175
#	251107
#	264967
#	275835
#	288240
#	298710
#	309532
#
# Disc length: 4271 seconds
#
# Revision: 2
# Processed by: cddbd v1.5.2PL0 Copyright (c) Steve Scherf et al.
# Submitted via: EasyCDDAExtractor 8.2.3.1
#
DISCID=a610ad1c
DTITLE=The Osborne Brothers - The Osborne Brothers 1956-68 Vol3
DYEAR=1900
DGENRE=Country
TTITLE0=Take This Hammer
TTITLE1=Don't Even Look At Me
TTITLE2=The Cuckoo Bird
TTITLE3=Bluegrass Express
TTITLE4=Me And My Old Banjo
TTITLE5=Pathway Of Teardrops
TTITLE6=Gotta Travel On
TTITLE7=Salty Dog Blues
TTITLE8=Kentucky
TTITLE9=Bugle On The Banjo (Bugle Call Rag)
TTITLE10=Cotton Fields
TTITLE11=Faded Lvoe
TTITLE12=This Heart Of Mine (Can Never Say Goodbye)
TTITLE13=Charlie Cotton
TTITLE14=I'll Be Alright Tomorrow
TTITLE15=Cut The Cornbread
TTITLE16=Hey Hey Bartender
TTITLE17=Honesome Day
TTITLE18=Big Spike Hammer
TTITLE19=Memories
TTITLE20=I Know What It Means To Be Lonesome
TTITLE21=Up This Hill And Down
TTITLE22=In The Pines
TTITLE23=One Tear
TTITLE24=Making Plans
TTITLE25=Yesterday's Gone
TTITLE26=Footprints In The Snow
TTITLE27=Sure-Fire
EXTD=
EXTT0=
EXTT1=
EXTT2=
EXTT3=
EXTT4=
EXTT5=
EXTT6=
EXTT7=
EXTT8=
EXTT9=
EXTT10=
EXTT11=
EXTT12=
EXTT13=
EXTT14=
EXTT15=
EXTT16=
EXTT17=
EXTT18=
EXTT19=
EXTT20=
EXTT21=
EXTT22=
EXTT23=
EXTT24=
EXTT25=
EXTT26=
EXTT27=
PLAYORDER=
